# xmcd
#
# Track frame offsets: 
#        150
#        42677
#        100805
#        125507
#        141467
#        194780
#
# Disc length: 3405 seconds
#
# Revision: 5
# Processed by: cddbd v1.5.2PL0 Copyright (c) Steve Scherf et al.
# Submitted via: ExactAudioCopy v0.95b4
#
DISCID=610d4b06
DTITLE=Bratislava Radio Symphony Orchestra - Michael Halász - Beethoven
DTITLE=(Lydian)
DYEAR=1992
DGENRE=Classical
TTITLE0=Symphony No. 6 in F Major, Op. 68, Allegro ma non Troppo
TTITLE1=Symphony No. 6 in F Major, Op. 68, Andante molto mosso
TTITLE2=Symphony No. 6 in F Major, Op. 68, Allegro
TTITLE3=Symphony No. 6 in F Major, Op. 68, Allegro
TTITLE4=Symphony No. 6 in F Major, Op. 68, Allegretto
TTITLE5=Leonora Overture No. 2, Op. 72
EXTD=Bratislava Radio Symphony Orchestra, Michael Halasz, recorded 2-6
EXTD=March 1988
EXTT0=
EXTT1=
EXTT2=
EXTT3=
EXTT4=
EXTT5=
PLAYORDER=
